# Blender v2.92.0 OBJ File: 'structure1.blend'
# www.blender.org
mtllib structure1.png
o Cube
v 9.990892 110.000000 -8.187635
v 9.990892 -0.000004 -8.187635
v 4.990892 -0.000004 -9.687635
v -10.009108 110.000000 -7.187635
v -10.009108 -0.000004 -7.187635
v -7.509108 110.000000 10.312364
v -7.509108 -0.000004 10.312364
v 7.490892 110.000000 10.312364
v 7.490892 -0.000004 10.312364
v 4.990892 110.000000 -9.687635
v -10.009108 -0.000004 7.812364
v 9.990892 -0.000004 7.812364
v 9.990892 110.000000 7.812364
v 4.990892 110.000000 -8.187635
v 4.990892 -0.000004 -8.187635
v -7.509108 -0.000004 -9.687635
v -7.509108 110.000000 -9.687635
v -10.009108 110.000000 7.812364
v -0.009107 110.000000 -8.187635
v -5.009108 110.000000 -9.687635
v -5.009108 110.000000 -8.187635
v -5.009108 -0.000004 -8.187635
v -0.009107 -0.000004 -8.187635
v -5.009108 -0.000004 -9.687635
v -0.009107 110.000000 -9.687635
v -0.009107 -0.000004 -9.687635
vt 0.625000 0.187500
vt 0.375000 0.250000
vt 0.375000 0.187500
vt 0.230468 0.562500
vt 0.242188 0.500000
vt 0.312500 0.500000
vt 0.625000 0.687500
vt 0.375000 0.750000
vt 0.375000 0.687500
vt 0.625000 0.437500
vt 0.375000 0.500000
vt 0.375000 0.437500
vt 0.625000 0.367188
vt 0.375000 0.375000
vt 0.375000 0.367188
vt 0.625000 0.562500
vt 0.375000 0.625000
vt 0.375000 0.562500
vt 0.625000 0.375000
vt 0.625000 0.871524
vt 0.375000 0.887504
vt 0.375000 0.850006
vt 0.625000 0.250000
vt 0.375000 0.312500
vt 0.625000 0.000000
vt 0.375000 0.062500
vt 0.375000 0.000000
vt 0.781250 0.562500
vt 0.781250 0.500000
vt 0.875000 0.687500
vt 0.625000 0.328125
vt 0.375000 0.335938
vt 0.375000 0.328125
vt 0.625000 0.335938
vt 0.375000 0.343750
vt 0.625000 0.343750
vt 0.375000 0.359375
vt 0.625000 0.359375
vt 0.349999 0.562500
vt 0.299996 0.687500
vt 0.274994 0.750000
vt 0.125000 0.750000
vt 0.125000 0.562500
vt 0.125000 0.500000
vt 0.218750 0.500000
vt 0.203125 0.500000
vt 0.210938 0.500000
vt 0.250000 0.500000
vt 0.625000 0.750000
vt 0.625000 0.500000
vt 0.625000 0.625000
vt 0.625000 0.903643
vt 0.625000 0.312500
vt 0.625000 0.062500
vt 0.687500 0.500000
vt 0.750000 0.500000
vt 0.757812 0.500000
vt 0.687500 0.750000
vt 0.812500 0.500000
vt 0.875000 0.500000
vt 0.796875 0.500000
vn -1.0000 0.0000 0.0000
vn 0.0000 -1.0000 0.0000
vn 0.7071 0.0000 0.7071
vn 0.0000 0.0000 -1.0000
vn 1.0000 0.0000 0.0000
vn 0.0000 0.0000 1.0000
vn -0.7071 0.0000 -0.7071
vn -0.7071 0.0000 0.7071
vn 0.0000 1.0000 0.0000
usemtl structure1.png
s off
f 18/1/1 5/2/1 11/3/1
f 23/4/2 26/5/2 15/6/2
f 13/7/3 9/8/3 12/9/3
f 14/10/4 2/11/4 15/12/4
f 25/13/4 3/14/4 26/15/4
f 1/16/5 12/17/5 2/18/5
f 10/19/5 15/12/5 3/14/5
f 8/20/6 7/21/6 9/22/6
f 4/23/7 16/24/7 5/2/7
f 6/25/8 11/26/8 7/27/8
f 19/28/9 21/29/9 18/30/9
f 17/31/4 24/32/4 16/33/4
f 20/34/5 22/35/5 24/32/5
f 21/36/4 23/37/4 22/35/4
f 19/38/1 26/15/1 23/37/1
f 18/1/1 4/23/1 5/2/1
f 15/6/2 2/39/2 12/40/2
f 12/40/2 9/41/2 23/4/2
f 9/41/2 7/42/2 23/4/2
f 7/42/2 11/43/2 23/4/2
f 11/43/2 5/44/2 22/45/2
f 5/44/2 16/46/2 22/45/2
f 16/46/2 24/47/2 22/45/2
f 11/43/2 22/45/2 23/4/2
f 26/5/2 3/48/2 15/6/2
f 15/6/2 12/40/2 23/4/2
f 13/7/3 8/49/3 9/8/3
f 14/10/4 1/50/4 2/11/4
f 25/13/4 10/19/4 3/14/4
f 1/16/5 13/51/5 12/17/5
f 10/19/5 14/10/5 15/12/5
f 8/20/6 6/52/6 7/21/6
f 4/23/7 17/53/7 16/24/7
f 6/25/8 18/54/8 11/26/8
f 13/51/9 1/50/9 14/55/9
f 14/55/9 10/56/9 25/57/9
f 14/55/9 25/57/9 19/28/9
f 8/49/9 13/51/9 19/28/9
f 13/51/9 14/55/9 19/28/9
f 18/30/9 6/58/9 19/28/9
f 6/58/9 8/49/9 19/28/9
f 17/59/9 4/60/9 21/29/9
f 4/60/9 18/30/9 21/29/9
f 21/29/9 20/61/9 17/59/9
f 17/31/4 20/34/4 24/32/4
f 20/34/5 21/36/5 22/35/5
f 21/36/4 19/38/4 23/37/4
f 19/38/1 25/13/1 26/15/1
